<?xml version="1.0" encoding="UTF-8"?>
<svg id="Layer_1" xmlns="http://www.w3.org/2000/svg" xmlns:xlink="http://www.w3.org/1999/xlink" version="1.1" viewBox="0 0 40 40">
  <!-- Generator: Adobe Illustrator 30.3.0, SVG Export Plug-In . SVG Version: 2.1.3 Build 182)  -->
  <defs>
    <style>
      .st0, .st1 {
        fill: #26a9e0;
      }

      .st0, .st2 {
        fill-rule: evenodd;
      }

      .st3 {
        fill: #231f20;
      }

      .st2 {
        fill: url(#linear-gradient);
      }
    </style>
    <linearGradient id="linear-gradient" x1="557.8" y1="2017.93" x2="570.5" y2="2019.63" gradientTransform="translate(-533.6 -1997.8)" gradientUnits="userSpaceOnUse">
      <stop offset="0" stop-color="#1b75bb"/>
      <stop offset="0" stop-color="#1c7bbf"/>
      <stop offset=".1" stop-color="#2190ce"/>
      <stop offset=".2" stop-color="#249ed8"/>
      <stop offset=".4" stop-color="#25a6de"/>
      <stop offset=".6" stop-color="#26a9e0"/>
      <stop offset="1" stop-color="#26a9e0"/>
    </linearGradient>
  </defs>
  <rect class="st3" width="40" height="40" rx="8" ry="8"/>
  <path class="st0" d="M33.2,17.1c-1.2-1.5-2.8-1.6-4.5-1.1-1.7.4-2.9,3.1-5.2,4.4l-4.7-6.5h0l-.1-.1H2c-.3,0-.5.3-.5.6s.2.6.5.6h15.9l7.9,11.2c0,.1.2.2.4.2h.4c3.3-1.9,1.9-5.6,6.8-7.3.7-.2,1.3-.4,2.9-.3-1-.8-3-1.5-3-1.5l-.1-.2Z"/>
  <path class="st2" d="M33.2,17.1c-1.2-1.5-2.8-1.6-4.5-1.1-1.7.4-2.9,3.1-5.2,4.4,0,0,3.7,5.5,3.8,5.4,3-1.9,1.2-5.1,6.1-6.9.7-.2,1.3-.4,2.9-.3-1-.9-3-1.5-3-1.5h-.1Z"/>
  <path class="st1" d="M5.6,16.5c-.2,0-.4.3-.4.6s.2.6.4.6h12.5l-.8-1.2H5.6Z"/>
  <path class="st1" d="M9.7,19.4c-.2,0-.4.3-.4.6s.2.6.4.6h10.5l-.8-1.2h-9.7Z"/>
  <path class="st1" d="M13.5,22.3c-.2,0-.4.3-.4.6s.2.6.4.6h8.7l-.8-1.2h-7.9Z"/>
  <path class="st1" d="M18.4,25.1c-.2,0-.4.3-.4.6s.2.6.4.6h5.8l-.8-1.2h-5Z"/>
</svg>