<svg xmlns="http://www.w3.org/2000/svg" width="1536" height="1024" viewBox="0 0 1536 1024">
<title>NEXT TMS Logo</title>
<path fill="#1C2C3E" fill-rule="evenodd" d="M 642.0,523.0 L 642.0,524.0 L 647.0,529.0 L 647.0,530.0 L 657.0,540.0 L 657.0,541.0 L 659.0,543.0 L 702.0,543.0 L 703.0,542.0 L 691.0,529.0 L 691.0,528.0 L 681.0,518.0 L 681.0,517.0 L 672.0,508.0 L 672.0,507.0 L 664.0,499.0 L 655.0,508.0 L 655.0,509.0 L 649.0,515.0 L 649.0,516.0 Z M 705.0,444.0 L 704.0,445.0 L 705.0,464.0 L 737.0,464.0 L 739.0,466.0 L 739.0,542.0 L 766.0,543.0 L 767.0,542.0 L 767.0,466.0 L 769.0,464.0 L 803.0,464.0 L 804.0,445.0 L 803.0,444.0 Z M 644.0,461.0 L 646.0,463.0 L 646.0,464.0 L 655.0,473.0 L 655.0,474.0 L 663.0,482.0 L 664.0,484.0 L 675.0,472.0 L 675.0,471.0 L 691.0,453.0 L 691.0,452.0 L 698.0,445.0 L 697.0,444.0 L 657.0,444.0 L 656.0,446.0 L 650.0,452.0 L 650.0,453.0 L 644.0,459.0 Z M 571.0,444.0 L 570.0,445.0 L 613.0,493.0 L 570.0,542.0 L 571.0,543.0 L 611.0,543.0 L 654.0,491.0 L 612.0,444.0 Z M 475.0,444.0 L 474.0,542.0 L 561.0,543.0 L 561.0,523.0 L 503.0,523.0 L 501.0,521.0 L 502.0,504.0 L 504.0,502.0 L 555.0,501.0 L 554.0,484.0 L 503.0,484.0 L 501.0,482.0 L 502.0,466.0 L 504.0,464.0 L 560.0,464.0 L 561.0,445.0 Z M 344.0,445.0 L 345.0,543.0 L 371.0,542.0 L 371.0,482.0 L 373.0,480.0 L 423.0,543.0 L 455.0,542.0 L 454.0,444.0 L 428.0,445.0 L 428.0,504.0 L 426.0,506.0 L 377.0,444.0 Z"/>
<path fill="#3A93E8" fill-rule="evenodd" d="M 945.0,444.0 L 945.0,544.0 L 974.0,543.0 L 973.0,486.0 L 975.0,484.0 L 1007.0,529.0 L 1016.0,528.0 L 1047.0,484.0 L 1049.0,486.0 L 1049.0,543.0 L 1079.0,543.0 L 1078.0,443.0 L 1044.0,443.0 L 1012.0,489.0 L 979.0,443.0 Z M 835.0,443.0 L 835.0,465.0 L 866.0,465.0 L 869.0,468.0 L 869.0,535.0 L 867.0,540.0 L 868.0,543.0 L 898.0,544.0 L 900.0,479.0 L 899.0,467.0 L 901.0,465.0 L 934.0,465.0 L 935.0,445.0 L 933.0,443.0 Z M 1185.0,451.0 L 1171.0,444.0 L 1147.0,439.0 L 1121.0,442.0 L 1103.0,450.0 L 1096.0,458.0 L 1093.0,466.0 L 1093.0,479.0 L 1096.0,487.0 L 1112.0,499.0 L 1129.0,504.0 L 1152.0,507.0 L 1158.0,510.0 L 1161.0,516.0 L 1152.0,523.0 L 1134.0,524.0 L 1116.0,520.0 L 1102.0,513.0 L 1095.0,522.0 L 1090.0,534.0 L 1106.0,542.0 L 1126.0,546.0 L 1153.0,546.0 L 1171.0,542.0 L 1180.0,537.0 L 1188.0,528.0 L 1191.0,520.0 L 1191.0,507.0 L 1184.0,495.0 L 1165.0,485.0 L 1131.0,479.0 L 1123.0,474.0 L 1123.0,468.0 L 1131.0,463.0 L 1142.0,462.0 L 1163.0,466.0 L 1174.0,472.0 Z"/>
</svg>