<?xml version="1.0" encoding="UTF-8"?>
<svg id="Layer_1" data-name="Layer 1" xmlns="http://www.w3.org/2000/svg" viewBox="0 0 865.17 102.72">
  <defs>
    <style>
      .cls-1 {
        fill: #3a93e8;
      }

      .cls-2 {
        fill: #fff;
      }
    </style>
  </defs>
  <path class="cls-2" d="M30,56.21v44.62H0V.83h1.55l61.45,45.48V1.83h30v100h-1.34L30,56.21Z"/>
  <path class="cls-2" d="M133,2.83h72v23h-41v13h35v23h-35v15h43v24h-74V2.83Z"/>
  <path class="cls-2" d="M303.67,51.83c12.98,16.33,25.97,32.67,38.95,49h-34.58l-19.59-27.09-19.44,27.09h-34.73l37.85-49.27L234.41,2.83h34.73c6.43,9.41,12.86,18.82,19.3,28.23M314,1.83h34.65c-13.67,14.37-27.35,28.73-41.02,43.1-2.97-3.64-5.94-7.29-8.91-10.93,7.13-15,8.15-17.16,15.28-32.16Z"/>
  <path class="cls-2" d="M453,1.83v25h-27v74h-31V26.83h-28V1.83h86Z"/>
  <path class="cls-1" d="M611,1.83v25h-27v74h-31V26.83h-28V1.83h86Z"/>
  <path class="cls-1" d="M673,55.55v45.28h-29V.83h.74l53.26,40.55L751.11.83h.89v100h-30v-45.28l-24.43,18.14-24.57-18.14Z"/>
  <path class="cls-1" d="M865.17,72.72c0,18.76-15.23,29.99-43.31,29.99-12.1,0-24.49-2.05-32.86-5.34v-27.39c10.01,5.07,21.95,7.81,31.21,7.81s14.49-1.51,14.49-5.07c0-4.11-7.02-6.03-18.52-10.13-17.33-6.16-29.57-12.74-29.57-31.64S803.19,0,828.73,0c10.75,0,21.8,1.78,29.27,4.66v26.3c-6.57-3.97-16.58-6.3-26.58-6.3-8.81,0-14.19,2.33-14.19,6.3,0,3.56,6.57,6.03,17.47,10.14,17.33,6.57,30.47,13.28,30.47,31.64Z"/>
</svg>