<?xml version="1.0" encoding="UTF-8"?>
<svg id="Layer_1" data-name="Layer 1" xmlns="http://www.w3.org/2000/svg" viewBox="0 0 865.15 102.29">
  <defs>
    <style>
      .cls-1 {
        fill: #3a93e8;
      }

      .cls-2 {
        fill: #1c2c3e;
      }
    </style>
  </defs>
  <path class="cls-2" d="M30.34,56.19v44.05H0V.68h1.49l61.28,45.42V2.05h30.49v99.56h-1.34L30.34,56.19Z"/>
  <path class="cls-2" d="M133.41,2.05h71.69v24h-40.6v13.09h34.8v22.5h-34.8v14.59h42.83v24h-73.92V2.05Z"/>
  <path class="cls-2" d="M303.64,51.14c13.01,16.37,26.02,32.73,39.03,49.1h-34.65l-19.63-27.14-19.48,27.14h-34.8l37.93-49.37L234.25,2.05h34.8c6.44,9.43,12.89,18.86,19.33,28.29M294.46,29.05c6.49-9,12.99-18,19.48-27h34.65c-13.67,14.37-27.35,28.73-41.02,43.1-4.37-5.36-8.74-10.73-13.11-16.09Z"/>
  <path class="cls-2" d="M453.32,2.05v24h-27.37v74.19h-31.23V26.05h-27.37V2.05h85.96Z"/>
  <path class="cls-1" d="M610.97,2.05v24h-27.37v74.19h-31.23V26.05h-27.37V2.05h85.96Z"/>
  <path class="cls-1" d="M672.99,54.96v45.28h-29.6V.68h.74l53.39,40.37L750.78.68h.89v99.56h-29.75v-45.28l-24.39,18.14-24.54-18.14Z"/>
  <path class="cls-1" d="M865.15,72.42c0,18.68-15.17,29.87-43.13,29.87-12.05,0-24.39-2.05-32.72-5.32v-27.28c9.96,5.05,21.86,7.77,31.08,7.77s14.43-1.5,14.43-5.05c0-4.09-6.99-6-18.44-10.09-17.25-6.14-29.45-12.68-29.45-31.5S803.43,0,828.86,0c10.71,0,21.71,1.77,29.15,4.64v26.19c-6.54-3.96-16.51-6.27-26.47-6.27-8.78,0-14.13,2.32-14.13,6.27,0,3.55,6.54,6,17.4,10.09,17.25,6.55,30.34,13.23,30.34,31.5Z"/>
</svg>